<mxfile host="app.diagrams.net" modified="2023-02-28T19:02:46.258Z" agent="5.0 (Windows NT 10.0; Win64; x64) AppleWebKit/537.36 (KHTML, like Gecko) Chrome/110.0.0.0 Safari/537.36" etag="FlkFb57DZ4XIcQ_9aFNv" compressed="false" version="20.8.23" type="github">
  <diagram name="Page-1" id="4kro865dxcLpz-Bnh4Ah">
    <mxGraphModel dx="794" dy="430" grid="1" gridSize="10" guides="1" tooltips="1" connect="1" arrows="1" fold="1" page="1" pageScale="1" pageWidth="1920" pageHeight="1200" math="0" shadow="0">
      <root>
        <mxCell id="0" />
        <mxCell id="1" parent="0" />
        <mxCell id="wvUDjrz9UltRIQUSr9A0-1" value="Enter Customer Information" style="rounded=0;whiteSpace=wrap;html=1;" parent="1" vertex="1">
          <mxGeometry x="1000" y="140" width="120" height="60" as="geometry" />
        </mxCell>
        <mxCell id="wvUDjrz9UltRIQUSr9A0-9" value="" style="edgeStyle=orthogonalEdgeStyle;rounded=0;orthogonalLoop=1;jettySize=auto;html=1;fontSize=10;" parent="1" source="wvUDjrz9UltRIQUSr9A0-2" target="wvUDjrz9UltRIQUSr9A0-6" edge="1">
          <mxGeometry relative="1" as="geometry" />
        </mxCell>
        <mxCell id="wvUDjrz9UltRIQUSr9A0-2" value="Bank, Email and Address Verification" style="rounded=0;whiteSpace=wrap;html=1;" parent="1" vertex="1">
          <mxGeometry x="1000" y="250" width="120" height="60" as="geometry" />
        </mxCell>
        <mxCell id="wvUDjrz9UltRIQUSr9A0-3" value="" style="ellipse;whiteSpace=wrap;html=1;aspect=fixed;" parent="1" vertex="1">
          <mxGeometry x="1040" y="60" width="40" height="40" as="geometry" />
        </mxCell>
        <mxCell id="wvUDjrz9UltRIQUSr9A0-4" value="" style="endArrow=classic;html=1;rounded=0;entryX=0.5;entryY=0;entryDx=0;entryDy=0;" parent="1" target="wvUDjrz9UltRIQUSr9A0-2" edge="1">
          <mxGeometry width="50" height="50" relative="1" as="geometry">
            <mxPoint x="1060" y="200" as="sourcePoint" />
            <mxPoint x="1059.5" y="280" as="targetPoint" />
          </mxGeometry>
        </mxCell>
        <mxCell id="wvUDjrz9UltRIQUSr9A0-5" value="" style="endArrow=classic;html=1;rounded=0;entryX=0.5;entryY=0;entryDx=0;entryDy=0;" parent="1" edge="1">
          <mxGeometry width="50" height="50" relative="1" as="geometry">
            <mxPoint x="1060" y="100" as="sourcePoint" />
            <mxPoint x="1059.58" y="140" as="targetPoint" />
          </mxGeometry>
        </mxCell>
        <mxCell id="wvUDjrz9UltRIQUSr9A0-6" value="&lt;font style=&quot;font-size: 10px;&quot;&gt;Verification Satisfactory?&lt;/font&gt;" style="rhombus;whiteSpace=wrap;html=1;" parent="1" vertex="1">
          <mxGeometry x="1020" y="370" width="80" height="80" as="geometry" />
        </mxCell>
        <mxCell id="wvUDjrz9UltRIQUSr9A0-7" value="" style="endArrow=classic;html=1;rounded=0;entryX=0.5;entryY=0;entryDx=0;entryDy=0;" parent="1" target="wvUDjrz9UltRIQUSr9A0-6" edge="1">
          <mxGeometry width="50" height="50" relative="1" as="geometry">
            <mxPoint x="1059.47" y="310" as="sourcePoint" />
            <mxPoint x="1059.47" y="360" as="targetPoint" />
          </mxGeometry>
        </mxCell>
        <mxCell id="wvUDjrz9UltRIQUSr9A0-8" value="Approve account opening" style="rounded=0;whiteSpace=wrap;html=1;fontSize=10;" parent="1" vertex="1">
          <mxGeometry x="1000" y="500" width="120" height="60" as="geometry" />
        </mxCell>
        <mxCell id="wvUDjrz9UltRIQUSr9A0-10" value="" style="endArrow=classic;html=1;rounded=0;" parent="1" edge="1">
          <mxGeometry width="50" height="50" relative="1" as="geometry">
            <mxPoint x="1059.47" y="450" as="sourcePoint" />
            <mxPoint x="1060" y="500" as="targetPoint" />
          </mxGeometry>
        </mxCell>
        <mxCell id="wvUDjrz9UltRIQUSr9A0-11" value="" style="endArrow=classic;html=1;rounded=0;fontSize=10;exitX=0;exitY=0.5;exitDx=0;exitDy=0;entryX=0;entryY=0.5;entryDx=0;entryDy=0;" parent="1" source="wvUDjrz9UltRIQUSr9A0-1" target="wvUDjrz9UltRIQUSr9A0-8" edge="1">
          <mxGeometry width="50" height="50" relative="1" as="geometry">
            <mxPoint x="950" y="360" as="sourcePoint" />
            <mxPoint x="910" y="530" as="targetPoint" />
            <Array as="points">
              <mxPoint x="910" y="170" />
              <mxPoint x="910" y="530" />
            </Array>
          </mxGeometry>
        </mxCell>
        <mxCell id="wvUDjrz9UltRIQUSr9A0-12" value="Existing Customer" style="text;html=1;strokeColor=none;fillColor=none;align=center;verticalAlign=middle;whiteSpace=wrap;rounded=0;fontSize=10;" parent="1" vertex="1">
          <mxGeometry x="840" y="310" width="60" height="30" as="geometry" />
        </mxCell>
        <mxCell id="wvUDjrz9UltRIQUSr9A0-13" value="New Customer" style="text;html=1;strokeColor=none;fillColor=none;align=center;verticalAlign=middle;whiteSpace=wrap;rounded=0;fontSize=10;" parent="1" vertex="1">
          <mxGeometry x="1040" y="200" width="130" height="40" as="geometry" />
        </mxCell>
        <mxCell id="wvUDjrz9UltRIQUSr9A0-14" value="Yes" style="text;html=1;strokeColor=none;fillColor=none;align=center;verticalAlign=middle;whiteSpace=wrap;rounded=0;fontSize=10;" parent="1" vertex="1">
          <mxGeometry x="1060" y="460" width="30" height="20" as="geometry" />
        </mxCell>
        <mxCell id="wvUDjrz9UltRIQUSr9A0-15" value="Apply Account Policy Check" style="rounded=0;whiteSpace=wrap;html=1;fontSize=10;" parent="1" vertex="1">
          <mxGeometry x="1000" y="610" width="120" height="60" as="geometry" />
        </mxCell>
        <mxCell id="wvUDjrz9UltRIQUSr9A0-16" value="" style="endArrow=classic;html=1;rounded=0;fontSize=10;exitX=0.5;exitY=1;exitDx=0;exitDy=0;entryX=0.5;entryY=0;entryDx=0;entryDy=0;" parent="1" source="wvUDjrz9UltRIQUSr9A0-8" target="wvUDjrz9UltRIQUSr9A0-15" edge="1">
          <mxGeometry width="50" height="50" relative="1" as="geometry">
            <mxPoint x="930" y="580" as="sourcePoint" />
            <mxPoint x="980" y="530" as="targetPoint" />
          </mxGeometry>
        </mxCell>
        <mxCell id="wvUDjrz9UltRIQUSr9A0-17" value="Deposit Initial Amount" style="rounded=0;whiteSpace=wrap;html=1;fontSize=10;" parent="1" vertex="1">
          <mxGeometry x="1000" y="720" width="120" height="60" as="geometry" />
        </mxCell>
        <mxCell id="wvUDjrz9UltRIQUSr9A0-18" value="" style="endArrow=classic;html=1;rounded=0;fontSize=10;entryX=0.52;entryY=-0.025;entryDx=0;entryDy=0;entryPerimeter=0;exitX=0.515;exitY=1.019;exitDx=0;exitDy=0;exitPerimeter=0;" parent="1" source="wvUDjrz9UltRIQUSr9A0-15" target="wvUDjrz9UltRIQUSr9A0-17" edge="1">
          <mxGeometry width="50" height="50" relative="1" as="geometry">
            <mxPoint x="930" y="650" as="sourcePoint" />
            <mxPoint x="980" y="600" as="targetPoint" />
          </mxGeometry>
        </mxCell>
        <mxCell id="wvUDjrz9UltRIQUSr9A0-19" value="Notify Customer" style="rounded=0;whiteSpace=wrap;html=1;fontSize=10;" parent="1" vertex="1">
          <mxGeometry x="1000" y="830" width="120" height="60" as="geometry" />
        </mxCell>
        <mxCell id="wvUDjrz9UltRIQUSr9A0-20" value="" style="endArrow=classic;html=1;rounded=0;fontSize=10;exitX=0.5;exitY=1;exitDx=0;exitDy=0;entryX=0.5;entryY=0;entryDx=0;entryDy=0;" parent="1" source="wvUDjrz9UltRIQUSr9A0-17" target="wvUDjrz9UltRIQUSr9A0-19" edge="1">
          <mxGeometry width="50" height="50" relative="1" as="geometry">
            <mxPoint x="980" y="700" as="sourcePoint" />
            <mxPoint x="1030" y="650" as="targetPoint" />
          </mxGeometry>
        </mxCell>
        <mxCell id="wvUDjrz9UltRIQUSr9A0-21" value="" style="ellipse;whiteSpace=wrap;html=1;aspect=fixed;fontSize=10;" parent="1" vertex="1">
          <mxGeometry x="1040" y="950" width="40" height="40" as="geometry" />
        </mxCell>
        <mxCell id="wvUDjrz9UltRIQUSr9A0-22" value="" style="endArrow=classic;html=1;rounded=0;fontSize=10;entryX=0.5;entryY=0;entryDx=0;entryDy=0;exitX=0.5;exitY=1;exitDx=0;exitDy=0;" parent="1" source="wvUDjrz9UltRIQUSr9A0-19" target="wvUDjrz9UltRIQUSr9A0-21" edge="1">
          <mxGeometry width="50" height="50" relative="1" as="geometry">
            <mxPoint x="980" y="870" as="sourcePoint" />
            <mxPoint x="1030" y="820" as="targetPoint" />
          </mxGeometry>
        </mxCell>
        <mxCell id="wvUDjrz9UltRIQUSr9A0-23" value="" style="endArrow=classic;html=1;rounded=0;fontSize=10;exitX=1;exitY=0.5;exitDx=0;exitDy=0;entryX=1;entryY=0.5;entryDx=0;entryDy=0;" parent="1" source="wvUDjrz9UltRIQUSr9A0-6" target="wvUDjrz9UltRIQUSr9A0-19" edge="1">
          <mxGeometry width="50" height="50" relative="1" as="geometry">
            <mxPoint x="980" y="520" as="sourcePoint" />
            <mxPoint x="1190" y="960" as="targetPoint" />
            <Array as="points">
              <mxPoint x="1200" y="410" />
              <mxPoint x="1200" y="860" />
            </Array>
          </mxGeometry>
        </mxCell>
        <mxCell id="wvUDjrz9UltRIQUSr9A0-25" value="No" style="text;html=1;strokeColor=none;fillColor=none;align=center;verticalAlign=middle;whiteSpace=wrap;rounded=0;fontSize=10;" parent="1" vertex="1">
          <mxGeometry x="1200" y="460" width="30" height="20" as="geometry" />
        </mxCell>
        <mxCell id="wvUDjrz9UltRIQUSr9A0-26" value="START" style="text;html=1;strokeColor=none;fillColor=none;align=center;verticalAlign=middle;whiteSpace=wrap;rounded=0;fontSize=10;" parent="1" vertex="1">
          <mxGeometry x="1035" y="40" width="50" height="10" as="geometry" />
        </mxCell>
        <mxCell id="wvUDjrz9UltRIQUSr9A0-28" value="END" style="text;html=1;strokeColor=none;fillColor=none;align=center;verticalAlign=middle;whiteSpace=wrap;rounded=0;fontSize=10;" parent="1" vertex="1">
          <mxGeometry x="1035" y="1000" width="50" height="10" as="geometry" />
        </mxCell>
      </root>
    </mxGraphModel>
  </diagram>
</mxfile>
